<?xml version="1.0" encoding="utf-8"?>
<!-- Generator: Adobe Illustrator 27.3.0, SVG Export Plug-In . SVG Version: 6.00 Build 0)  -->
<svg version="1.1" id="Layer_1" xmlns="http://www.w3.org/2000/svg" xmlns:xlink="http://www.w3.org/1999/xlink" x="0px" y="0px"
	 viewBox="0 0 1352.47 324.71" style="enable-background:new 0 0 1352.47 324.71;" xml:space="preserve">
<path d="M62.25,33.8h99.21c24.5,0,40.72,5.51,51.75,13.78c10.72,8.27,18.68,21.43,18.68,40.11c0,22.66-14.39,39.5-36.13,47.46v0.92
	c16.23,7.66,28.17,22.35,28.17,43.79c0,21.74-9.8,45.32-30.93,59.1c-14.39,9.19-29.7,13.78-52.05,13.78H20L62.25,33.8z
	 M137.88,203.13c13.47,0,25.72-7.35,25.72-24.19c0-12.25-9.49-19.29-21.43-19.29H99.61l-8.27,43.48H137.88z M148.9,119.23
	c9.8,0,22.05-4.9,22.05-20.21c0-9.8-7.65-16.23-18.68-16.23h-37.66l-7.04,36.44H148.9z"/>
<path d="M222.6,259.77h20.21c10.1,0,18.68-3.37,18.68-15c0-4.9-1.22-11.64-2.75-18.98L233.62,96.57h59.4l6.43,60.93
	c1.84,16.23,2.45,40.11,2.45,40.11h0.61c0,0,8.57-22.05,16.23-38.28l29.39-62.77h57.26L321.2,261c-15,29.09-35.83,43.48-66.75,43.48
	h-40.42L222.6,259.77z"/>
<path d="M408.77,96.57h19.9l9.8-50.52h55.73l-9.8,50.52h29.09l-7.04,34.6h-29.09l-12.25,64.61c-2.14,12.25,1.53,16.23,14.39,16.23
	c3.06,0,7.66-0.31,11.02-0.61l-7.96,40.42c-6.74,1.84-15.92,3.98-28.48,3.98c-38.28,0-52.97-17.76-46.24-52.36l13.78-72.26h-19.9
	L408.77,96.57z"/>
<path d="M552.03,188.73c0.31,14.7,5.82,29.39,26.64,29.39c9.49,0,18.37-3.37,22.35-11.94h55.12c-5.21,16.84-15.62,29.39-29.09,37.66
	c-15,9.19-30.62,13.17-48.38,13.17c-45.93,0-80.84-25.11-80.84-71.96c0-52.97,36.74-93.7,89.1-93.7c19.29,0,33.07,3.98,44.4,11.02
	c25.42,16.23,34.29,46.54,28.48,86.35H552.03z M556.01,158.11h52.97c0.61-15.31-5.82-28.17-22.35-28.17
	C575,129.94,561.83,137.29,556.01,158.11z"/>
<path d="M704.21,33.8h99.21c24.5,0,40.72,5.51,51.75,13.78c10.72,8.27,18.68,21.43,18.68,40.11c0,22.66-14.39,39.5-36.13,47.46v0.92
	c16.23,7.66,28.17,22.35,28.17,43.79c0,21.74-9.8,45.32-30.93,59.1c-14.39,9.19-29.7,13.78-52.05,13.78H661.96L704.21,33.8z
	 M779.84,203.13c13.47,0,25.72-7.35,25.72-24.19c0-12.25-9.49-19.29-21.43-19.29h-42.56l-8.27,43.48H779.84z M790.87,119.23
	c9.8,0,22.05-4.9,22.05-20.21c0-9.8-7.65-16.23-18.68-16.23h-37.66l-7.04,36.44H790.87z"/>
<path d="M927.8,188.73c0.31,14.7,5.82,29.39,26.64,29.39c9.49,0,18.37-3.37,22.35-11.94h55.12c-5.21,16.84-15.62,29.39-29.09,37.66
	c-15,9.19-30.62,13.17-48.38,13.17c-45.93,0-80.84-25.11-80.84-71.96c0-52.97,36.74-93.7,89.1-93.7c19.29,0,33.07,3.98,44.4,11.02
	c25.41,16.23,34.29,46.54,28.48,86.35H927.8z M931.78,158.11h52.97c0.61-15.31-5.82-28.17-22.35-28.17
	C950.76,129.94,937.6,137.29,931.78,158.11z"/>
<path d="M1129.42,235.58h-0.61c-11.63,14.39-27.86,21.13-41.95,21.13c-30.62,0-48.38-17.45-48.38-44.09
	c0-34.91,23.58-49.3,61.55-51.44c32.46-1.84,46.54-4.29,46.54-19.6c0-6.43-3.98-12.25-14.7-12.25c-13.17,0-20.82,6.43-23.88,18.68
	h-54.2c6.12-33.07,30.31-56.34,81.45-56.34c16.84,0,33.99,2.14,47.15,10.72c14.39,9.49,23.58,26.64,17.76,55.73l-13.47,68.89
	c-2.76,13.17-2.14,20.21,0.92,23.27l-0.31,2.45h-55.42C1130.34,249.06,1129.42,242.32,1129.42,235.58z M1137.38,196.7l2.76-13.78
	c-6.12,2.76-13.47,4.59-23.27,6.12c-10.41,1.53-23.58,4.29-23.58,18.68c0,10.41,6.74,14.39,17.15,14.39
	C1122.38,222.11,1133.4,216.29,1137.38,196.7z"/>
<path d="M1215.28,96.57h19.9l9.8-50.52h55.73l-9.8,50.52H1320l-7.04,34.6h-29.09l-12.25,64.61c-2.14,12.25,1.53,16.23,14.39,16.23
	c3.06,0,7.66-0.31,11.02-0.61l-7.96,40.42c-6.74,1.84-15.92,3.98-28.48,3.98c-38.28,0-52.97-17.76-46.24-52.36l13.78-72.26h-19.9
	L1215.28,96.57z"/>
<polygon points="712.21,33.8 440.88,33.8 438.47,46.05 494.2,46.05 "/>
</svg>
